<mxfile host="app.diagrams.net" modified="2021-05-01T11:32:52.434Z" agent="5.0 (Windows NT 10.0; Win64; x64) AppleWebKit/537.36 (KHTML, like Gecko) Chrome/90.0.4430.85 Safari/537.36" etag="nhvnIX3LCdaY4uJC_bPh" version="14.6.9" type="github">
  <diagram name="Page-1" id="16e2658f-23c8-b752-8be9-c03fbebb8bbe">
    <mxGraphModel dx="1008" dy="834" grid="1" gridSize="10" guides="1" tooltips="1" connect="1" arrows="1" fold="1" page="1" pageScale="1" pageWidth="1100" pageHeight="850" background="#ffffff" math="1" shadow="0">
      <root>
        <mxCell id="0" />
        <mxCell id="1" parent="0" />
        <mxCell id="qL3sPBOv_Qa85s4smPcs-19" style="edgeStyle=orthogonalEdgeStyle;rounded=0;comic=0;orthogonalLoop=1;jettySize=auto;html=1;exitX=1;exitY=0.5;exitDx=0;exitDy=0;exitPerimeter=0;entryX=0;entryY=0.5;entryDx=0;entryDy=0;entryPerimeter=0;endArrow=none;endFill=0;" edge="1" parent="1" source="6d250d948d6a1778-1" target="6d250d948d6a1778-2">
          <mxGeometry relative="1" as="geometry" />
        </mxCell>
        <mxCell id="6d250d948d6a1778-1" value="" style="verticalLabelPosition=bottom;shadow=0;dashed=0;align=center;fillColor=#000000;html=1;verticalAlign=top;strokeWidth=1;shape=mxgraph.electrical.miscellaneous.monocell_battery;rounded=1;comic=0;labelBackgroundColor=none;fontFamily=Verdana;fontSize=12;rotation=-90;" parent="1" vertex="1">
          <mxGeometry x="180" y="290" width="100" height="60" as="geometry" />
        </mxCell>
        <mxCell id="6d250d948d6a1778-22" value="$$U = \text{const.}$$" style="endArrow=classic;labelBackgroundColor=none;strokeWidth=1;fontFamily=Verdana;fontSize=16;comic=0;html=1;" parent="1" edge="1">
          <mxGeometry y="-50" width="50" height="50" relative="1" as="geometry">
            <mxPoint x="180" y="280" as="sourcePoint" />
            <mxPoint x="180" y="360" as="targetPoint" />
            <mxPoint as="offset" />
          </mxGeometry>
        </mxCell>
        <mxCell id="qL3sPBOv_Qa85s4smPcs-3" value="" style="group" vertex="1" connectable="0" parent="1">
          <mxGeometry x="270" y="130" width="140" height="40" as="geometry" />
        </mxCell>
        <mxCell id="6d250d948d6a1778-2" value="" style="verticalLabelPosition=bottom;shadow=0;dashed=0;align=center;html=1;verticalAlign=top;strokeWidth=1;shape=mxgraph.electrical.resistors.resistor_1;rounded=1;comic=0;labelBackgroundColor=none;fontFamily=Verdana;fontSize=12;rotation=-90;direction=south;" parent="qL3sPBOv_Qa85s4smPcs-3" vertex="1">
          <mxGeometry x="60" y="-20" width="20" height="100" as="geometry" />
        </mxCell>
        <mxCell id="6d250d948d6a1778-16" value="$$10\Omega$$" style="text;resizable=0;points=[];autosize=1;align=center;verticalAlign=middle;spacingTop=0;fontSize=16;fontFamily=Verdana;html=1;labelBorderColor=none;labelBackgroundColor=none;spacing=0;" parent="qL3sPBOv_Qa85s4smPcs-3" vertex="1">
          <mxGeometry width="140" height="20" as="geometry" />
        </mxCell>
        <mxCell id="qL3sPBOv_Qa85s4smPcs-4" value="" style="group" vertex="1" connectable="0" parent="1">
          <mxGeometry x="450" y="330" width="230" height="100" as="geometry" />
        </mxCell>
        <mxCell id="6d250d948d6a1778-6" value="" style="verticalLabelPosition=bottom;shadow=0;dashed=0;align=center;fillColor=#ffffff;html=1;verticalAlign=top;strokeWidth=1;shape=mxgraph.electrical.resistors.resistor_1;rounded=1;comic=0;labelBackgroundColor=none;fontFamily=Verdana;fontSize=12;fontColor=#000000;rotation=0;direction=south;" parent="qL3sPBOv_Qa85s4smPcs-4" vertex="1">
          <mxGeometry x="90" width="20" height="100" as="geometry" />
        </mxCell>
        <mxCell id="6d250d948d6a1778-18" value="$$5\Omega$$" style="text;html=1;resizable=0;points=[];autosize=1;align=center;verticalAlign=middle;spacingTop=0;fontSize=16;fontFamily=Verdana;spacing=0;" parent="qL3sPBOv_Qa85s4smPcs-4" vertex="1">
          <mxGeometry y="40" width="130" height="20" as="geometry" />
        </mxCell>
        <mxCell id="qL3sPBOv_Qa85s4smPcs-7" value="" style="group" vertex="1" connectable="0" parent="qL3sPBOv_Qa85s4smPcs-4">
          <mxGeometry x="100" width="130" height="100" as="geometry" />
        </mxCell>
        <mxCell id="qL3sPBOv_Qa85s4smPcs-8" value="" style="verticalLabelPosition=bottom;shadow=0;dashed=0;align=center;fillColor=#ffffff;html=1;verticalAlign=top;strokeWidth=1;shape=mxgraph.electrical.resistors.resistor_1;rounded=1;comic=0;labelBackgroundColor=none;fontFamily=Verdana;fontSize=12;fontColor=#000000;rotation=0;direction=south;" vertex="1" parent="qL3sPBOv_Qa85s4smPcs-7">
          <mxGeometry x="90" width="20" height="100" as="geometry" />
        </mxCell>
        <mxCell id="qL3sPBOv_Qa85s4smPcs-9" value="$$5\Omega$$" style="text;html=1;resizable=0;points=[];autosize=1;align=center;verticalAlign=middle;spacingTop=0;fontSize=16;fontFamily=Verdana;spacing=0;" vertex="1" parent="qL3sPBOv_Qa85s4smPcs-7">
          <mxGeometry y="40" width="130" height="20" as="geometry" />
        </mxCell>
        <mxCell id="qL3sPBOv_Qa85s4smPcs-16" style="edgeStyle=orthogonalEdgeStyle;rounded=0;comic=0;orthogonalLoop=1;jettySize=auto;html=1;entryX=0;entryY=0.5;entryDx=0;entryDy=0;entryPerimeter=0;exitX=0;exitY=0.5;exitDx=0;exitDy=0;exitPerimeter=0;" edge="1" parent="qL3sPBOv_Qa85s4smPcs-4" source="6d250d948d6a1778-6" target="qL3sPBOv_Qa85s4smPcs-8">
          <mxGeometry relative="1" as="geometry">
            <mxPoint x="100" y="-50" as="targetPoint" />
          </mxGeometry>
        </mxCell>
        <mxCell id="qL3sPBOv_Qa85s4smPcs-6" value="" style="group" vertex="1" connectable="0" parent="1">
          <mxGeometry x="320" y="280" width="140" height="100" as="geometry" />
        </mxCell>
        <mxCell id="6d250d948d6a1778-4" value="" style="verticalLabelPosition=bottom;shadow=0;dashed=0;align=center;html=1;verticalAlign=top;strokeWidth=1;shape=mxgraph.electrical.resistors.resistor_1;rounded=1;comic=0;labelBackgroundColor=none;fontFamily=Verdana;fontSize=12;rotation=-90;direction=west;" parent="qL3sPBOv_Qa85s4smPcs-6" vertex="1">
          <mxGeometry x="60" y="40" width="100" height="20" as="geometry" />
        </mxCell>
        <mxCell id="qL3sPBOv_Qa85s4smPcs-5" value="$$10\Omega$$" style="text;html=1;resizable=0;points=[];autosize=1;align=center;verticalAlign=middle;spacingTop=0;fontSize=16;fontFamily=Verdana;spacing=0;" vertex="1" parent="qL3sPBOv_Qa85s4smPcs-6">
          <mxGeometry y="40" width="140" height="20" as="geometry" />
        </mxCell>
        <mxCell id="qL3sPBOv_Qa85s4smPcs-10" value="" style="group" vertex="1" connectable="0" parent="1">
          <mxGeometry x="500" y="180" width="130" height="100" as="geometry" />
        </mxCell>
        <mxCell id="qL3sPBOv_Qa85s4smPcs-11" value="" style="verticalLabelPosition=bottom;shadow=0;dashed=0;align=center;fillColor=#ffffff;html=1;verticalAlign=top;strokeWidth=1;shape=mxgraph.electrical.resistors.resistor_1;rounded=1;comic=0;labelBackgroundColor=none;fontFamily=Verdana;fontSize=12;fontColor=#000000;rotation=0;direction=south;" vertex="1" parent="qL3sPBOv_Qa85s4smPcs-10">
          <mxGeometry x="90" width="20" height="100" as="geometry" />
        </mxCell>
        <mxCell id="qL3sPBOv_Qa85s4smPcs-12" value="$$5\Omega$$" style="text;html=1;resizable=0;points=[];autosize=1;align=center;verticalAlign=middle;spacingTop=0;fontSize=16;fontFamily=Verdana;spacing=0;" vertex="1" parent="qL3sPBOv_Qa85s4smPcs-10">
          <mxGeometry y="40" width="130" height="20" as="geometry" />
        </mxCell>
        <mxCell id="qL3sPBOv_Qa85s4smPcs-13" style="edgeStyle=orthogonalEdgeStyle;rounded=0;comic=0;orthogonalLoop=1;jettySize=auto;html=1;entryX=0;entryY=0.5;entryDx=0;entryDy=0;entryPerimeter=0;endArrow=none;endFill=0;" edge="1" parent="1" source="6d250d948d6a1778-2" target="qL3sPBOv_Qa85s4smPcs-11">
          <mxGeometry relative="1" as="geometry">
            <mxPoint x="660" y="130" as="targetPoint" />
          </mxGeometry>
        </mxCell>
        <mxCell id="qL3sPBOv_Qa85s4smPcs-14" style="edgeStyle=orthogonalEdgeStyle;rounded=0;comic=0;orthogonalLoop=1;jettySize=auto;html=1;endArrow=oval;endFill=1;" edge="1" parent="1" source="6d250d948d6a1778-4">
          <mxGeometry relative="1" as="geometry">
            <mxPoint x="430" y="160" as="targetPoint" />
          </mxGeometry>
        </mxCell>
        <mxCell id="qL3sPBOv_Qa85s4smPcs-17" style="edgeStyle=orthogonalEdgeStyle;rounded=0;comic=0;orthogonalLoop=1;jettySize=auto;html=1;entryX=0;entryY=0.5;entryDx=0;entryDy=0;entryPerimeter=0;exitX=1;exitY=0.5;exitDx=0;exitDy=0;exitPerimeter=0;endArrow=none;endFill=0;" edge="1" parent="1" source="6d250d948d6a1778-6" target="6d250d948d6a1778-1">
          <mxGeometry relative="1" as="geometry" />
        </mxCell>
        <mxCell id="qL3sPBOv_Qa85s4smPcs-18" style="edgeStyle=orthogonalEdgeStyle;rounded=0;comic=0;orthogonalLoop=1;jettySize=auto;html=1;exitX=1;exitY=0.5;exitDx=0;exitDy=0;exitPerimeter=0;endArrow=oval;endFill=1;" edge="1" parent="1" source="qL3sPBOv_Qa85s4smPcs-8">
          <mxGeometry relative="1" as="geometry">
            <mxPoint x="550" y="450" as="targetPoint" />
            <Array as="points">
              <mxPoint x="650" y="450" />
            </Array>
          </mxGeometry>
        </mxCell>
        <mxCell id="qL3sPBOv_Qa85s4smPcs-20" style="edgeStyle=orthogonalEdgeStyle;rounded=0;comic=0;orthogonalLoop=1;jettySize=auto;html=1;exitX=1;exitY=0.5;exitDx=0;exitDy=0;exitPerimeter=0;endArrow=oval;endFill=1;" edge="1" parent="1" source="6d250d948d6a1778-4">
          <mxGeometry relative="1" as="geometry">
            <mxPoint x="430.3333333333335" y="450" as="targetPoint" />
          </mxGeometry>
        </mxCell>
        <mxCell id="qL3sPBOv_Qa85s4smPcs-21" style="edgeStyle=orthogonalEdgeStyle;rounded=0;comic=0;orthogonalLoop=1;jettySize=auto;html=1;exitX=1;exitY=0.5;exitDx=0;exitDy=0;exitPerimeter=0;endArrow=oval;endFill=1;" edge="1" parent="1" source="qL3sPBOv_Qa85s4smPcs-11">
          <mxGeometry relative="1" as="geometry">
            <mxPoint x="600.3333333333335" y="310" as="targetPoint" />
          </mxGeometry>
        </mxCell>
      </root>
    </mxGraphModel>
  </diagram>
</mxfile>
